<svg width="24" height="24" viewBox="0 0 24 24" fill="none" xmlns="http://www.w3.org/2000/svg">
<path d="M20.7501 14.5L19.7454 21.5328C19.6584 22.1417 19.6146 22.4461 19.4677 22.6751C19.3381 22.8769 19.1535 23.0373 18.9354 23.1369C18.688 23.25 18.3805 23.25 17.7654 23.25H6.23462C5.61958 23.25 5.31205 23.25 5.06458 23.1369C4.84649 23.0373 4.66158 22.8769 4.53207 22.6751C4.38511 22.4461 4.34167 22.1417 4.25469 21.5328L3.25 14.5M20.7501 14.5H3.25M20.7501 14.5C22.3789 13.7444 23.25 11.7045 23.25 9.91672C23.25 7.99744 21.9632 6.35362 20.1372 5.67096C19.7463 5.52482 19.5 5.14746 19.5 4.76047C19.5 3.1784 18.1009 1.89578 16.375 1.89578C16.0922 1.89578 15.8183 1.93023 15.5577 1.99479C15.0175 2.12865 14.4131 2.09918 13.9482 1.81354C12.8551 1.14182 11.5399 0.75 10.125 0.75C6.32804 0.75 3.25 3.57154 3.25 7.05208C3.25 7.49202 2.96361 7.89495 2.55359 8.12361C1.47215 8.72671 0.75 9.81731 0.75 11.0625C0.75 12.6592 1.64035 14.1136 3.25 14.5M14.5 23.25V14.5M9.5 23.25L9.5 14.5" stroke="#D8853C" stroke-width="1.5" stroke-linecap="round" stroke-linejoin="round"/>
</svg>
