<svg width="118" height="118" viewBox="0 0 118 118" fill="none" xmlns="http://www.w3.org/2000/svg">
<path d="M88.5 59C88.5 52.2115 82.9967 46.7083 76.2083 46.7083C69.4199 46.7083 63.9166 52.2115 63.9166 59" stroke="#141B34" stroke-width="8.5" stroke-linecap="round"/>
<path d="M29.5 14.75V59M41.7917 12.2916V36.875M54.0833 9.83331V36.875" stroke="#141B34" stroke-width="8.5" stroke-linecap="round" stroke-linejoin="round"/>
<path d="M19.6666 22.125L29.5 20.5885M98.3333 9.83331L66.375 14.8268M19.6666 34.4166L29.5 33.8021M98.3333 29.5L66.375 31.4974" stroke="#141B34" stroke-width="8.5" stroke-linecap="round" stroke-linejoin="round"/>
<path d="M24.148 59H93.8523C101.733 59 104.62 60.8226 102.654 68.7453C99.1854 82.7209 89.3648 86.1921 80.2911 95.314C78.086 97.5314 81.5174 100.807 81.5193 103.246C81.5228 107.837 77.1563 108.167 73.6782 108.167H44.3218C40.8436 108.167 36.4771 107.837 36.4808 103.246C36.4827 100.859 39.8112 97.4282 37.7087 95.314C28.635 86.1921 18.8148 82.7209 15.3463 68.7453C13.38 60.8226 16.2671 59 24.148 59Z" stroke="#141B34" stroke-width="8.5" stroke-linejoin="round"/>
</svg>
