<svg width="24" height="22" viewBox="0 0 24 22" fill="none" xmlns="http://www.w3.org/2000/svg">
<path d="M20.75 7.00002V7.75002C20.9489 7.75002 21.1397 7.671 21.2803 7.53035C21.421 7.38969 21.5 7.19893 21.5 7.00002H20.75ZM10.7502 20.75V21.5C10.9492 21.5 11.1399 21.421 11.2806 21.2803C11.4212 21.1397 11.5002 20.9489 11.5002 20.75L10.7502 20.75ZM1.02248 19.385L0.354229 19.7255L1.02248 19.385ZM2.11475 20.4775L2.45524 19.8092L2.11475 20.4775ZM2.11475 1.02248L2.45524 1.69074L2.11475 1.02248ZM1.02248 2.11505L1.69074 2.45554L1.02248 2.11505ZM20.4778 2.11505L19.8095 2.45554L20.4778 2.11505ZM19.3847 1.02248L19.7252 0.354229L19.3847 1.02248ZM15.75 15C15.3358 15 15 15.3358 15 15.75C15 16.1642 15.3358 16.5 15.75 16.5V15.75V15ZM23.25 16.5C23.6642 16.5 24 16.1642 24 15.75C24 15.3358 23.6642 15 23.25 15V15.75V16.5ZM10.75 15.25C11.1642 15.25 11.5 14.9142 11.5 14.5C11.5 14.0858 11.1642 13.75 10.75 13.75V14.5V15.25ZM0.75 13.75C0.335786 13.75 0 14.0858 0 14.5C0 14.9142 0.335786 15.25 0.75 15.25V14.5V13.75ZM18.75 19.5C18.75 19.9142 19.0858 20.25 19.5 20.25C19.9142 20.25 20.25 19.9142 20.25 19.5H19.5H18.75ZM20.25 12C20.25 11.5858 19.9142 11.25 19.5 11.25C19.0858 11.25 18.75 11.5858 18.75 12H19.5H20.25ZM11.5 0.749991C11.5 0.335777 11.1642 -5.06639e-06 10.75 0C10.3358 5.06639e-06 10 0.335796 10 0.750009L10.75 0.75L11.5 0.749991ZM0.750001 6.25C0.335787 6.25 2.98023e-07 6.58579 0 7C-2.98023e-07 7.41421 0.335786 7.75 0.749999 7.75L0.75 7L0.750001 6.25ZM20.75 7.00002H21.5V4.75002H20.75H20V7.00002H20.75ZM16.7502 0.75V0H4.75024V0.75V1.5H16.7502V0.75ZM0.75 4.75002H0V16.75H0.75H1.5V4.75002H0.75ZM4.75024 20.75V21.5H10.7502V20.75V20H4.75024V20.75ZM0.75 16.75H0C0 17.4377 -0.000583291 17.9986 0.0365514 18.4531C0.0744017 18.9163 0.155138 19.3347 0.354229 19.7255L1.02248 19.385L1.69074 19.0445C1.61735 18.9004 1.56184 18.7014 1.53157 18.3309C1.50058 17.9517 1.5 17.4625 1.5 16.75H0.75ZM4.75024 20.75V20C4.03782 20 3.54845 19.9994 3.16906 19.9684C2.79837 19.9381 2.59925 19.8826 2.45524 19.8092L2.11475 20.4775L1.77425 21.1457C2.16503 21.3448 2.58358 21.4256 3.04692 21.4634C3.50155 21.5006 4.06254 21.5 4.75024 21.5V20.75ZM1.02248 19.385L0.354229 19.7255C0.665735 20.3368 1.16256 20.8341 1.77425 21.1457L2.11475 20.4775L2.45524 19.8092C2.12612 19.6415 1.8586 19.3739 1.69074 19.0445L1.02248 19.385ZM4.75024 0.75V0C4.06255 0 3.50156 -0.000582874 3.04693 0.0365497C2.5836 0.0743935 2.16504 0.155114 1.77425 0.354229L2.11475 1.02248L2.45524 1.69074C2.59923 1.61737 2.79835 1.56185 3.16904 1.53157C3.54844 1.50058 4.03781 1.5 4.75024 1.5V0.75ZM0.75 4.75002H1.5C1.5 4.03757 1.50058 3.54835 1.53157 3.1691C1.56184 2.79861 1.61735 2.59958 1.69074 2.45554L1.02248 2.11505L0.354229 1.77456C0.155137 2.1653 0.0744014 2.58369 0.0365513 3.04695C-0.000583291 3.50145 0 4.06233 0 4.75002H0.75ZM2.11475 1.02248L1.77425 0.354229C1.16253 0.665916 0.665718 1.16323 0.354229 1.77456L1.02248 2.11505L1.69074 2.45554C1.85862 2.12607 2.12615 1.85842 2.45524 1.69074L2.11475 1.02248ZM20.75 4.75002H21.5C21.5 4.0624 21.5007 3.50152 21.4636 3.04707C21.4258 2.58385 21.3452 2.16538 21.146 1.77456L20.4778 2.11505L19.8095 2.45554C19.8829 2.5995 19.9383 2.79845 19.9686 3.16898C19.9995 3.54828 20 4.0375 20 4.75002H20.75ZM16.7502 0.75V1.5C17.4627 1.5 17.9518 1.50058 18.3309 1.53157C18.7012 1.56183 18.9002 1.61733 19.0442 1.69074L19.3847 1.02248L19.7252 0.354229C19.3345 0.155158 18.9163 0.0744085 18.4531 0.0365527C17.9987 -0.000583708 17.4379 0 16.7502 0V0.75ZM20.4778 2.11505L21.146 1.77456C20.8343 1.16272 20.3364 0.665661 19.7252 0.354229L19.3847 1.02248L19.0442 1.69074C19.3738 1.85867 19.6419 2.12657 19.8095 2.45554L20.4778 2.11505ZM15.75 15.75V16.5H23.25V15.75V15H15.75V15.75ZM10.75 14.5V13.75H0.75V14.5V15.25H10.75V14.5ZM19.5 19.5H20.25V12H19.5H18.75V19.5H19.5ZM10.75 0.75L10 0.750009L10.0002 20.75L10.7502 20.75L11.5002 20.75L11.5 0.749991L10.75 0.75ZM20.75 7.00002V6.25002L0.750001 6.25L0.75 7L0.749999 7.75L20.75 7.75002V7.00002Z" fill="#FF5959"/>
</svg>
